<?xml version="1.0" encoding="utf-8"?>
<!-- Generator: Adobe Illustrator 27.5.0, SVG Export Plug-In . SVG Version: 6.00 Build 0)  -->
<svg version="1.1" xmlns="http://www.w3.org/2000/svg" xmlns:xlink="http://www.w3.org/1999/xlink" x="0px" y="0px"
	 viewBox="0 0 500 500" style="enable-background:new 0 0 500 500;" xml:space="preserve">
<g id="Floor">
	<ellipse id="Floor_17_" style="fill:#F5F5F5;" cx="249.048" cy="301.458" rx="235.1" ry="140.399"/>
</g>
<g id="Shadows">
	<ellipse id="XMLID_5882_" style="fill:#E0E0E0;" cx="299.034" cy="387.681" rx="30.871" ry="17.823"/>
	<path id="XMLID_5505_" style="fill:#E0E0E0;" d="M55.081,364.981l15.978,9.228c1.196,0.691,3.134,0.691,4.33,0l186.585-107.726
		c1.196-0.69,1.196-1.81,0-2.5l-15.98-9.226c-1.196-0.69-3.134-0.69-4.33,0L55.081,362.481
		C53.886,363.171,53.886,364.291,55.081,364.981z"/>
</g>
<g id="Plants">
	<g id="XMLID_5504_">
		<g id="XMLID_5401_">
			<path id="XMLID_5427_" style="fill:#27DEBF;" d="M67.441,330.241c0,0,4.854-19.219-2.226-33.368
				c-7.08-14.148-19.651-14.901-24.472-13.761c-4.821,1.14-9.211,6.683-2.93,12.949c6.281,6.266,19.773,19.025,20.431,27.64
				L67.441,330.241z"/>
			<path id="XMLID_5419_" style="opacity:0.15;" d="M67.441,330.241c0,0,4.854-19.219-2.226-33.368
				c-7.08-14.148-19.651-14.901-24.472-13.761c-4.821,1.14-9.211,6.683-2.93,12.949c6.281,6.266,19.773,19.025,20.431,27.64
				L67.441,330.241z"/>
			<path id="XMLID_5408_" style="fill:none;stroke:#FFFFFF;stroke-linecap:round;stroke-miterlimit:10;" d="M44.72,286.361
				c5.959,3.453,21.177,14.816,20.567,40.614"/>
		</g>
		<g id="XMLID_5375_">
			<path id="XMLID_5381_" style="fill:#27DEBF;" d="M66.468,324.617c0.972-4.959-2.491-9.767-10.845-11.094
				c-8.354-1.327-7.117-1.139-16.003-6.87c-8.886-5.731-16.947-3.996-18.908-0.498c-2.13,3.801,5.196,8.245,10.225,12.865
				c5.029,4.619,7.96,9.341,4.766,14.193c-2.736,4.156-3.268,8.272,3.208,12.288c5.754,3.568,13.63,2.189,14.204,9.031
				c0.327,3.901,4.916,9.574,11.358,8.2C83.397,353.042,66.468,324.617,66.468,324.617z"/>
			<path id="XMLID_5377_" style="fill:none;stroke:#FFFFFF;stroke-linecap:round;stroke-miterlimit:10;" d="M28.548,306.494
				c9.912,4.125,35.134,20.694,40.728,49.021"/>
			<path id="XMLID_5376_" style="fill:none;stroke:#FFFFFF;stroke-linecap:round;stroke-miterlimit:10;" d="M42.555,336.263
				c0,0,9.245-2.974,18.655-0.985"/>
		</g>
	</g>
</g>
<g id="Megaphone">
	<g>
		<g id="XMLID_5523_">
			<path id="XMLID_5527_" style="fill:#37474F;" d="M297.811,76.718l20.308-11.738c0,0,0.005,71.52,0.005,75.041
				c0,3.521,4.06,7.04,4.06,7.04l-20.311,11.723c0,0-4.062-3.519-4.062-7.036S297.811,76.718,297.811,76.718z"/>
			<path id="XMLID_5526_" style="fill:#455A64;" d="M273.12,76.521l8.561,10.904l-0.045,30.244l-9.245,24.09l29.481,17.026
				c-2.56-2.313-3.858-4.661-4.062-7.036l0-60.976L273.12,76.521z"/>
			<polygon id="XMLID_5525_" style="fill:#27DEBF;" points="272.391,141.758 272.391,146.449 301.873,163.475 301.873,158.785 			
				"/>
			<polygon id="XMLID_5524_" style="fill:#27DEBF;" points="301.873,163.475 322.183,151.752 322.183,147.061 301.873,158.785 			
				"/>
			<polygon id="XMLID_5483_" style="opacity:0.1;" points="301.873,163.475 322.183,151.752 322.183,147.061 301.873,158.785 			"/>
		</g>
		<g id="XMLID_5489_">
			<path id="XMLID_5482_" style="fill:#F0F0F0;" d="M296.876,27.385l-0.001,0.002c-3.45-2.064-8.25-1.81-13.562,1.257l-0.193,0.112
				c-10.5,6.062-19.012,20.806-19.012,32.93v0.224c0,6.28,2.288,10.62,5.949,12.507l-0.001,0.002l15.375,9.051l25.654-47.708
				L296.876,27.385z"/>
			<path id="XMLID_5484_" style="fill:#E0E0E0;" d="M270.056,74.417l-0.001,0.002l15.375,9.051l8.503-15.814l-28.056-16.198
				c-1.124,3.452-1.77,6.936-1.77,10.228v0.224C264.107,68.19,266.395,72.529,270.056,74.417z"/>
			<path id="XMLID_5520_" style="fill:#27DEBF;" d="M330.072,39.06l-0.01,0.01c-3.9-2.24-9.15-2.15-14.98,0.7
				c-0.61,0.29-1.23,0.62-1.86,0.98c-0.74,0.43-1.46,0.88-2.18,1.38c-1.19,0.81-2.35,1.7-3.48,2.68c-2.07,1.77-4.03,3.79-5.85,6
				c-4.88,5.94-8.72,13.2-10.75,20.45c-1.02,3.66-1.58,7.31-1.58,10.8c0,7.41,2.54,12.68,6.67,15.24l-14.68-8.46l0.02-0.03
				c-5.13-3.26-8.66-9.08-8.66-16.37c0-3.33,0.51-6.82,1.45-10.31c1.99-7.41,5.89-14.86,10.88-20.93c1.82-2.21,3.78-4.24,5.85-6
				c1.13-0.98,2.29-1.88,3.48-2.68c0.72-0.5,1.45-0.96,2.18-1.38c0.62-0.36,1.25-0.68,1.88-0.97c5.76-2.62,11.77-2.25,16.63,0.28
				l0.01-0.01l0.41,0.23c0.17,0.1,0.35,0.2,0.52,0.31L330.072,39.06z"/>
			<path id="XMLID_5519_" style="opacity:0.1;" d="M281.372,88.84l0.02-0.03c-5.13-3.26-8.66-9.08-8.66-16.37
				c0-3.33,0.51-6.82,1.45-10.31l16.78,9.13c-1.02,3.66-1.58,7.31-1.58,10.8c0,7.41,2.54,12.68,6.67,15.24L281.372,88.84z"/>
			<path id="XMLID_5517_" style="fill:#27DEBF;" d="M337.072,54.52c0,15.21-10.67,33.7-23.84,41.3c-6.62,3.83-12.62,4.17-16.94,1.62
				c-0.08-0.04-0.16-0.09-0.24-0.14c-4.13-2.56-6.67-7.83-6.67-15.24c0-15.21,10.67-33.7,23.84-41.31
				c6.57-3.79,12.53-4.16,16.84-1.68C334.392,41.55,337.072,46.9,337.072,54.52z"/>
			<path id="XMLID_5480_" style="opacity:0.2;" d="M337.072,54.52c0,15.21-10.67,33.7-23.84,41.3c-6.62,3.83-12.62,4.17-16.94,1.62
				c-0.08-0.04-0.16-0.09-0.24-0.14c-4.13-2.56-6.67-7.83-6.67-15.24c0-15.21,10.67-33.7,23.84-41.31
				c6.57-3.79,12.53-4.16,16.84-1.68C334.392,41.55,337.072,46.9,337.072,54.52z"/>
			<path id="XMLID_5514_" style="fill:#F0F0F0;" d="M410.183,50.586c0,0-24.056,12.346-44.601,47.931
				c-4.035,6.989-7.226,13.657-9.748,19.845c-10.318,25.312-9.461,42.747-9.461,42.747c-7.172-17.558-16.085-35.741-30.957-49.662
				c-9.205-8.617-18.284-15.291-18.284-15.291l0.01-0.017c-3.935-2.284-6.232-7.247-6.233-14.084
				c0.001-4.502,0.97-9.301,2.696-14.009c1.075-2.982,2.453-5.928,4.073-8.734c4.18-7.24,9.953-13.56,16.312-17.233
				c5.922-3.417,11.368-3.91,15.313-1.644l0.01-0.017c0,0,10.32,4.526,22.384,8.189C371.189,54.526,391.392,53.154,410.183,50.586z"
				/>
			<path id="XMLID_5513_" style="fill:#E0E0E0;" d="M355.834,118.361c-10.318,25.312-9.461,42.747-9.461,42.747
				c-7.172-17.558-16.085-35.741-30.957-49.662c-9.205-8.617-18.284-15.291-18.284-15.291l0.01-0.017
				c-3.935-2.284-6.232-7.247-6.233-14.084c0.001-4.502,0.97-9.301,2.696-14.009C311.833,77.173,341.329,94.006,355.834,118.361z"/>
			<path id="XMLID_5506_" style="fill:#27DEBF;" d="M455.502,84.91c0,15.86-4.88,33.22-13.01,49.25v0.01
				c-10.42,20.53-26.14,38.86-43.74,49.02c-31.34,18.09-56.74,3.42-56.74-32.76c0-8.28,1.33-16.96,3.75-25.65
				c5.98-21.4,18.6-42.83,34.38-58.27c2.22-2.18,4.5-4.23,6.84-6.15c0.97-0.8,1.96-1.58,2.95-2.33h0.01
				c1.41-1.07,2.83-2.09,4.27-3.05c1.5-1,3.01-1.95,4.54-2.83C430.092,34.06,455.502,48.72,455.502,84.91z"/>
			<path id="XMLID_5501_" style="opacity:0.1;" d="M442.492,134.17c-10.42,20.53-26.14,38.86-43.74,49.02
				c-31.34,18.09-56.74,3.42-56.74-32.76c0-8.28,1.33-16.96,3.75-25.65h0.01c2.12,4.68,9.74,11.36,13.15,6.68
				c-2.13,7.78-3.29,15.48-3.29,22.75c0,10.4,2.32,18.79,6.7,24.28c3.74,4.68,8.88,7.06,15.27,7.05c6.21,0.01,13.43-2.28,20.88-6.57
				c14.97-8.64,28.73-24.17,38.49-41.76C436.972,137.21,438.922,138.86,442.492,134.17z"/>
			<path id="XMLID_5500_" style="fill:#27DEBF;" d="M451.622,86.93c0,15.98-5.61,34.02-14.65,50.28
				c-9.76,17.59-23.52,33.12-38.49,41.76c-7.45,4.29-14.67,6.58-20.88,6.57c-6.39,0.01-11.53-2.37-15.27-7.05
				c-4.38-5.49-6.7-13.88-6.7-24.28c0-7.27,1.16-14.97,3.29-22.75c0.8-2.94,1.74-5.89,2.81-8.83c1.86-5.12,4.11-10.24,6.69-15.19
				c0.53-1.02,1.07-2.03,1.62-3.03c0.91-1.67,1.86-3.33,2.85-4.95c3.36-5.57,7.13-10.87,11.19-15.74c0.04-0.05,0.1-0.11,0.14-0.17
				c2.71-3.24,5.54-6.28,8.47-9.09c2.11-2.02,4.27-3.91,6.47-5.67c0.92-0.74,1.85-1.45,2.79-2.14c1.13-0.82,2.27-1.61,3.42-2.37
				c1.12-0.73,2.25-1.42,3.38-2.08c7.47-4.32,14.69-6.58,20.9-6.59C443.412,55.61,451.622,67.33,451.622,86.93z"/>
			<path id="XMLID_5481_" style="opacity:0.3;" d="M451.622,86.93c0,15.98-5.61,34.02-14.65,50.28
				c-9.76,17.59-23.52,33.12-38.49,41.76c-7.45,4.29-14.67,6.58-20.88,6.57c-6.39,0.01-11.53-2.37-15.27-7.05
				c-4.38-5.49-6.7-13.88-6.7-24.28c0-7.27,1.16-14.97,3.29-22.75c0.8-2.94,1.74-5.89,2.81-8.83c1.86-5.12,4.11-10.24,6.69-15.19
				c0.53-1.02,1.07-2.03,1.62-3.03c0.91-1.67,1.86-3.33,2.85-4.95c3.36-5.57,7.13-10.87,11.19-15.74c0.04-0.05,0.1-0.11,0.14-0.17
				c2.71-3.24,5.54-6.28,8.47-9.09c2.11-2.02,4.27-3.91,6.47-5.67c0.92-0.74,1.85-1.45,2.79-2.14c1.13-0.82,2.27-1.61,3.42-2.37
				c1.12-0.73,2.25-1.42,3.38-2.08c7.47-4.32,14.69-6.58,20.9-6.59C443.412,55.61,451.622,67.33,451.622,86.93z"/>
		</g>
		<g id="XMLID_5493_">
			<path id="XMLID_5529_" style="fill:#E0E0E0;" d="M403.396,95.824l-19.91,37.17c-5.59-2.1-15.06-5.46-22.77-7.43
				c0.32-0.98,0.66-1.95,1.02-2.93c1.86-5.12,4.11-10.24,6.69-15.19c0.53-1.02,1.07-2.03,1.62-3.03c0.91-1.67,1.86-3.33,2.85-4.95
				c3.36-5.57,7.13-10.87,11.19-15.74c0.04-0.05,0.1-0.11,0.14-0.17c0.6-0.71,1.2-1.42,1.81-2.11
				C393.496,89.114,403.396,95.824,403.396,95.824z"/>
		</g>
		<g id="XMLID_5491_">
			<path id="XMLID_5492_" style="fill:#F5F5F5;" d="M385.149,132.899c-4.5,0-7.186-3.636-7.186-9.725v-0.186
				c0-9.571,6.743-21.249,15.031-26.035l0.161-0.093c2.21-1.276,4.381-1.95,6.28-1.95c4.5,0,7.186,3.635,7.186,9.725v0.186
				c0,9.57-6.743,21.249-15.031,26.035l-0.161,0.093C389.22,132.225,387.048,132.899,385.149,132.899L385.149,132.899z"/>
		</g>
	</g>
</g>
<g id="Device">
	<g id="XMLID_7016_">
		<path id="XMLID_5360_" style="fill:#455A64;" d="M253.842,104.898c-1.22-0.65-2.79-0.56-4.51,0.43l-171.95,99.28
			c-1.87,1.08-3.57,3.04-4.84,5.36l-8.12-4.69c1.26-2.32,2.97-4.27,4.84-5.36l171.94-99.28c1.8-1.03,3.43-1.08,4.67-0.33v-0.01
			L253.842,104.898z"/>
		<path id="XMLID_5486_" style="fill:#263238;" d="M64.672,364.468v-0.01c-1.52-0.85-2.48-2.86-2.48-5.72v-145.32
			c0-0.33,0.01-0.66,0.04-0.99c0.01-0.23,0.04-0.46,0.07-0.69c0.02-0.22,0.05-0.44,0.09-0.66c0.02-0.15,0.05-0.31,0.09-0.47
			c0.1-0.55,0.24-1.1,0.41-1.65c0.06-0.24,0.14-0.48,0.22-0.72c0.11-0.33,0.24-0.65,0.36-0.97c0.02-0.03,0.03-0.07,0.05-0.1
			c0.13-0.32,0.26-0.63,0.41-0.93c0.15-0.33,0.32-0.65,0.49-0.96l8.12,4.69c-0.18,0.33-0.35,0.67-0.52,1.02
			c-0.13,0.28-0.25,0.56-0.36,0.84c-0.02,0.04-0.04,0.09-0.05,0.13c-0.14,0.32-0.26,0.65-0.37,0.98c-0.12,0.34-0.23,0.69-0.32,1.03
			c-0.08,0.26-0.14,0.52-0.19,0.78c-0.27,1.12-0.41,2.26-0.41,3.36v145.32c0,2.89,0.98,4.92,2.52,5.76L64.672,364.468z"/>
		<path id="XMLID_7049_" style="fill:#37474F;" d="M249.329,105.332L77.385,204.604c-3.902,2.253-7.066,8.297-7.066,13.5v145.325
			c0,5.203,3.163,7.595,7.066,5.342l171.944-99.272c3.902-2.253,7.066-8.297,7.066-13.5V110.673
			C256.394,105.47,253.231,103.079,249.329,105.332z"/>
		<path id="XMLID_7048_" style="fill:#27DEBF;" d="M239.857,268.201L86.856,356.536c-2.022,1.167-3.661-0.072-3.661-2.768V212.898
			c0-2.696,1.639-5.829,3.661-6.996l153.001-88.336c2.022-1.168,3.661,0.072,3.661,2.768v140.871
			C243.519,263.901,241.88,267.033,239.857,268.201z"/>
		<path id="XMLID_5362_" style="opacity:0.1;" d="M239.857,268.201L86.856,356.536c-2.022,1.167-3.661-0.072-3.661-2.768V212.898
			c0-2.696,1.639-5.829,3.661-6.996l153.001-88.336c2.022-1.168,3.661,0.072,3.661,2.768v140.871
			C243.519,263.901,241.88,267.033,239.857,268.201z"/>
		<path id="XMLID_7045_" style="fill:#E0E0E0;" d="M79.121,291.166c0,1.741-1.059,3.763-2.364,4.517
			c-1.306,0.754-2.364-0.046-2.364-1.787c0-1.741,1.058-3.763,2.364-4.517C78.062,288.625,79.121,289.425,79.121,291.166z"/>
		<path id="XMLID_7042_" style="fill:#E0E0E0;" d="M76.757,267.875L76.757,267.875c-0.791,0.456-1.432,1.681-1.432,2.736v12.541
			c0,1.054,0.641,1.539,1.432,1.082l0,0c0.791-0.457,1.432-1.681,1.432-2.736v-12.541C78.189,267.902,77.548,267.418,76.757,267.875
			z"/>
		<polygon id="XMLID_7038_" style="fill:#FAFAFA;" points="228.735,135.932 106.874,206.288 106.874,344.931 228.735,274.62 		"/>
		<polygon id="XMLID_5371_" style="fill:#FFFFFF;" points="228.735,135.932 224.673,133.586 102.811,203.943 106.874,206.288 		"/>
		<polygon id="XMLID_5372_" style="fill:#E0E0E0;" points="102.811,203.943 106.874,206.288 106.874,344.931 102.812,347.275 		"/>
		<g id="XMLID_7017_">
			<g id="XMLID_7037_">
				<path id="XMLID_5354_" style="fill:#455A64;" d="M121.644,226.231c0,0,0.069,0.326,0.069,1.488c0,1.221-0.069,1.566-0.069,1.566
					l-7.104,4.102c0,0-0.068-0.326-0.068-1.488c0-1.129,0.068-1.566,0.068-1.566l2.2-1.27v-15.457l-1.833,1.058
					c0,0-0.068-0.327-0.068-1.487c0-1.131,0.068-1.568,0.068-1.568l6.141-3.545l5.844,11.107v-11.425l-1.834,1.059
					c0,0-0.068-0.328-0.068-1.488c0-1.131,0.068-1.567,0.068-1.567l6.967-4.022c0,0,0.068,0.328,0.068,1.489
					c0,1.222-0.068,1.567-0.068,1.567l-2.063,1.19v18.512l-3.415,1.972l-6.736-12.668v13.502L121.644,226.231z"/>
				<path id="XMLID_5356_" style="fill:#455A64;" d="M145.996,193.658v5.315c0,0-0.504,0.383-1.122,0.739
					c-0.71,0.41-1.169,0.584-1.169,0.584v-2.26l-5.521,3.188v5.62l2.635-1.521v-2.23c0,0,0.412-0.33,1.146-0.753
					c0.848-0.489,1.1-0.543,1.1-0.543v7.545c0,0-0.183,0.197-1.1,0.727c-0.778,0.45-1.146,0.569-1.146,0.569v-2.32l-2.635,1.52
					v6.843l5.751-3.32v-2.872c0,0,0.458-0.355,1.169-0.766c0.618-0.357,1.122-0.558,1.122-0.558v5.928l-13.175,7.605
					c0,0-0.069-0.51-0.069-1.486c0-1.039,0.069-1.568,0.069-1.568l2.061-1.189v-15.457l-1.833,1.059c0,0-0.068-0.42-0.068-1.488
					c0-0.887,0.068-1.568,0.068-1.568L145.996,193.658z"/>
				<path id="XMLID_5358_" style="fill:#455A64;" d="M156.809,191.387l3.186-1.838l2.863,12.582l0.161-0.094
					c0,0,1.26-10.318,1.719-16.143l-1.833,1.058c0,0-0.047-0.524-0.047-1.561c0-1.008,0.047-1.494,0.047-1.494l6.232-3.598
					c0,0,0.068,0.419,0.068,1.427c0,1.161-0.068,1.628-0.068,1.628l-1.604,0.926c-0.572,6.593-2.199,19.781-2.199,19.781
					l-4.675,2.699l-2.359-10.398l-2.361,13.124l-4.674,2.698c0,0-1.741-11.001-2.177-17.255l-1.605,0.926
					c0,0-0.046-0.523-0.046-1.563c0-1.008,0.046-1.492,0.046-1.492l6.485-3.744c0,0,0.068,0.419,0.068,1.427
					c0,1.161-0.068,1.628-0.068,1.628l-1.833,1.059c0.32,5.496,1.672,14.186,1.672,14.186l0.161-0.092L156.809,191.387z"/>
				<path id="XMLID_5361_" style="fill:#455A64;" d="M180.381,179.489c0,0-0.343,0.29-1.214,0.793
					c-0.939,0.542-1.306,0.662-1.306,0.662v-2.169c0,0-0.802-0.362-2.338,0.525c-1.535,0.886-2.704,2.874-2.704,4.433
					c0,1.068,0.252,2.054,1.284,1.886l3.001-0.45c1.604-0.223,4.033-0.068,4.033,3.996c0,3.971-2.085,7.435-5.958,9.67
					c-3.688,2.131-5.361,0.5-5.361,0.5v-4.094c0,0,0.458-0.355,1.214-0.793c0.849-0.489,1.306-0.662,1.306-0.662v2.291
					c0,0,0.849,0.61,2.842-0.541c2.154-1.243,2.888-3.102,2.888-4.6c0-1.559-0.985-2.058-2.04-1.908l-3.276,0.488
					c-2.269,0.33-3.001-1.384-3.001-4.042c0-3.605,2.635-7.661,5.773-9.473c2.59-1.495,4.857-0.361,4.857-0.361V179.489z"/>
			</g>
			<polygon id="XMLID_7034_" style="fill:#E0E0E0;" points="219.213,150.89 186.705,169.659 186.705,191.726 219.213,172.957 			"/>
			<polygon id="XMLID_7031_" style="fill:#27DEBF;" points="219.213,185.806 114.61,246.199 114.61,240.49 219.213,180.097 			"/>
			<polygon id="XMLID_7028_" style="fill:#455A64;" points="147.782,286.417 114.61,305.569 114.61,253.339 147.782,234.187 			"/>
			<g id="XMLID_7022_">
				<path id="XMLID_7027_" style="fill:#FFFFFF;" d="M142.197,245.735l-22.002,12.703c-0.404,0.233-0.731-0.014-0.731-0.552v0
					c0-0.538,0.327-1.163,0.731-1.396l22.002-12.703c0.404-0.233,0.731,0.014,0.731,0.552v0
					C142.928,244.876,142.6,245.502,142.197,245.735z"/>
				<path id="XMLID_7026_" style="fill:#FFFFFF;" d="M142.197,255.098l-22.002,12.703c-0.404,0.233-0.731-0.014-0.731-0.552l0,0
					c0-0.538,0.327-1.163,0.731-1.396l22.002-12.703c0.404-0.233,0.731,0.014,0.731,0.552l0,0
					C142.928,254.24,142.6,254.865,142.197,255.098z"/>
				<path id="XMLID_7025_" style="fill:#FFFFFF;" d="M142.197,264.461l-22.002,12.703c-0.404,0.233-0.731-0.014-0.731-0.552l0,0
					c0-0.538,0.327-1.163,0.731-1.396l22.002-12.703c0.404-0.233,0.731,0.014,0.731,0.552l0,0
					C142.928,263.603,142.6,264.228,142.197,264.461z"/>
				<path id="XMLID_7024_" style="fill:#FFFFFF;" d="M142.197,273.825l-22.002,12.703c-0.404,0.233-0.731-0.014-0.731-0.552l0,0
					c0-0.538,0.327-1.163,0.731-1.396l22.002-12.703c0.404-0.233,0.731,0.014,0.731,0.552l0,0
					C142.928,272.967,142.6,273.592,142.197,273.825z"/>
				<path id="XMLID_7023_" style="fill:#FFFFFF;" d="M142.197,283.188l-22.002,12.703c-0.404,0.233-0.731-0.014-0.731-0.552l0,0
					c0-0.538,0.327-1.163,0.731-1.396l22.002-12.703c0.404-0.233,0.731,0.014,0.731,0.552l0,0
					C142.928,282.33,142.6,282.955,142.197,283.188z"/>
			</g>
			<g id="XMLID_5495_">
				<path id="XMLID_5502_" style="fill:#FFFFFF;" d="M142.197,250.196l-22.002,12.703c-0.404,0.233-0.731-0.014-0.731-0.552v0
					c0-0.538,0.327-1.163,0.731-1.396l22.002-12.703c0.404-0.233,0.731,0.014,0.731,0.552v0
					C142.928,249.338,142.6,249.963,142.197,250.196z"/>
				<path id="XMLID_5499_" style="fill:#FFFFFF;" d="M142.197,259.559l-22.002,12.703c-0.404,0.233-0.731-0.014-0.731-0.552l0,0
					c0-0.538,0.327-1.163,0.731-1.396l22.002-12.703c0.404-0.233,0.731,0.014,0.731,0.552l0,0
					C142.928,258.701,142.6,259.326,142.197,259.559z"/>
				<path id="XMLID_5498_" style="fill:#FFFFFF;" d="M142.197,268.923l-22.002,12.703c-0.404,0.233-0.731-0.014-0.731-0.552l0,0
					c0-0.538,0.327-1.163,0.731-1.396l22.002-12.703c0.404-0.233,0.731,0.014,0.731,0.552l0,0
					C142.928,268.065,142.6,268.69,142.197,268.923z"/>
				<path id="XMLID_5497_" style="fill:#FFFFFF;" d="M142.197,278.286l-22.002,12.703c-0.404,0.233-0.731-0.014-0.731-0.552l0,0
					c0-0.538,0.327-1.163,0.731-1.396l22.002-12.703c0.404-0.233,0.731,0.014,0.731,0.552l0,0
					C142.928,277.428,142.6,278.053,142.197,278.286z"/>
			</g>
			<polygon id="XMLID_7021_" style="fill:#E0E0E0;" points="219.213,280.071 155.118,317.077 155.118,229.952 219.213,192.946 			
				"/>
			<g id="XMLID_5584_">
				<path id="XMLID_5589_" style="fill:#27DEBF;" d="M159.634,231.427l55.707-32.161c0.783-0.452,1.418-0.086,1.418,0.819v45.722
					c0,0.904-0.635,2.004-1.418,2.457l-55.706,32.162c-0.783,0.452-1.418,0.086-1.418-0.819l-0.002-45.723
					C158.215,232.979,158.85,231.879,159.634,231.427z"/>
				<path id="XMLID_5588_" style="opacity:0.8;fill:#FFFFFF;" d="M159.634,231.427l55.707-32.161
					c0.783-0.452,1.418-0.086,1.418,0.819v45.722c0,0.904-0.635,2.004-1.418,2.457l-55.706,32.162
					c-0.783,0.452-1.418,0.086-1.418-0.819l-0.002-45.723C158.215,232.979,158.85,231.879,159.634,231.427z"/>
				<path id="XMLID_5587_" style="fill:#27DEBF;" d="M201.219,225.652l-9.307,16.473l6.541,8.479l-21.611-18.622l-18.626,40.327
					l0,7.297c0,0.905,0.635,1.271,1.418,0.819l55.706-32.162c0.783-0.452,1.418-1.552,1.418-2.457v-5.947L201.219,225.652z"/>
				<path id="XMLID_5585_" style="fill:#27DEBF;" d="M207.648,210.552c1.542-0.89,2.791-0.169,2.791,1.611s-1.25,3.945-2.791,4.836
					c-1.542,0.89-2.791,0.169-2.791-1.612C204.856,213.607,206.106,211.442,207.648,210.552z"/>
			</g>
			<polygon id="XMLID_5352_" style="fill:#F0F0F0;" points="169.651,282.615 216.549,255.538 216.549,274.302 169.65,301.377 			"/>
			<polygon id="XMLID_7018_" style="fill:#27DEBF;" points="165.385,303.839 114.61,333.154 114.61,314.398 165.385,285.083 			"/>
		</g>
	</g>
</g>
<g id="Character">
	<g id="XMLID_5818_">
		<path id="XMLID_5881_" style="fill:#263238;" d="M310.623,238.325h-17.094c-6.941,0-12.567-5.627-12.567-12.567v-3.764
			c0-7.957,6.451-14.408,14.408-14.408h0.845c7.957,0,14.408,6.451,14.408,14.408V238.325z"/>
		<path id="XMLID_5651_" style="fill:#263238;" d="M282.872,211.391c1.051,0.21,1.733,1.231,1.524,2.282l-3.806-0.759
			C280.8,211.863,281.822,211.181,282.872,211.391z"/>
		<path id="XMLID_5653_" style="fill:#263238;" d="M285.358,210.564c0.33,1.02-0.228,2.114-1.248,2.444l-1.197-3.692
			C283.933,208.986,285.027,209.544,285.358,210.564z"/>
		<g id="XMLID_5874_">
			<path id="XMLID_5880_" style="fill:#263238;" d="M311.056,382.516c1.721,1.885,3.621,3.396,5.659,4.922
				c0.305,0.228,0.621,0.47,0.786,0.813c0.267,0.555,0.682,1.929-1.849,2.812c-2.472,0.863-5.555,0.661-7.808-0.749
				c-2.078-1.301-2.171-4.007-4.132-5.55c-1.453-1.144-3.268-1.437-4.442-2.931c-0.818-1.04-0.605-2.425-0.178-4.138
				c0.465-1.871,0.68-3.286,1.299-3.143l-0.102,0.861c0.772,1.233,4.776,1.597,6.559,0.746
				C306.848,376.159,309.933,381.286,311.056,382.516z"/>
			<path id="XMLID_5879_" style="fill:#B16668;" d="M312.811,384.266c0-0.002,0-0.011,0-0.013c-0.601-0.551-1.191-1.12-1.756-1.738
				c-0.724-0.793-2.263-3.203-3.268-4.817c-0.611-0.981-1.055-2.155-0.915-3.448c0.14-1.293,0.498-4.611,0.498-4.611l-6.345-0.449
				l-0.737,6.221v0c-0.153,1.41,1.012,2.662,3.076,4.441c2.064,1.779,4.686,5.928,6.555,6.972s3.205,1.005,4.003,0.471
				C314.744,386.745,314.825,386.323,312.811,384.266z"/>
			<path id="XMLID_5878_" style="fill:#263238;" d="M286.93,383.083v-0.954c0.376,1.119,2.12,5.933,4.766,8.346
				c2.103,1.918,4.972,4.134,5.702,6.272c0.759,2.224-3.992,2.972-5.957,2.624c-2.283-0.404-5.237-1.7-6.844-3.675
				c-1.13-1.389-1.85-3.035-2.657-4.127c-0.807-1.092-2.668-2.311-3.104-3.576c-0.24-0.694,0.045-2.215,0.382-3.5
				c0.309-1.179,0.644-2.475,1.047-2.365c0.001,0.144,0,0.727,0,0.727c0.484,0.536,1.823,1.069,3.333,1.127
				C284.572,384.021,286.938,383.827,286.93,383.083z"/>
			<path id="XMLID_5877_" style="fill:#B16668;" d="M293.6,392.164c-0.652-0.582-1.309-1.151-1.904-1.694
				c-1.848-1.686-3.257-4.545-4.066-6.496c-0.462-1.114-0.699-2.303-0.699-3.509v-3.8h-6.667v6.186v0v0.001v0.165l0.034,0.017
				c0.321,1.386,3.381,5.071,5.119,7.474c1.165,1.611,3.379,3.661,6.025,4.014C293.948,394.855,295.229,394.065,293.6,392.164z"/>
			<path id="XMLID_5876_" style="fill:#37474F;" d="M281.589,279.463c-5.169,11.29,0.186,51.059,0.186,51.059
				c-0.155,1.832-2.25,5.437-3.03,13.5c-0.922,9.528,1.447,33.45,1.447,33.45s3.087,2.019,6.738,0.268c0,0,6.354-36.03,7.549-45.502
				c1.043-8.267,3.044-27.699,3.044-27.699l5.196,27.875c0,0-1.689,4.537-2.03,8.066c-0.54,5.572-0.134,31.345-0.134,31.345
				s2.279,1.734,6.646,1.091c0,0,7.564-35.281,8.149-41.987c0.349-4.006-4.216-53.118-4.216-53.118L281.589,279.463z"/>
			<path id="XMLID_5875_" style="fill:#263238;" d="M297.524,304.54l1.678-9.232c0,0,7.1-1.471,10.319-4.498
				c0,0-3.378,4.202-8.396,5.578l-1.885,8.073l2.968,25.217L297.524,304.54z"/>
		</g>
		<g id="XMLID_5866_">
			<path id="XMLID_5873_" style="fill:#B16668;" d="M268.615,272.166c0.167-0.723,2.761-8.319,4.39-12.539l8.74,4.253l-2.891,7.781
				l-8.708,4.996C267.797,275.797,268.448,272.89,268.615,272.166z"/>
			<polygon id="XMLID_5872_" style="fill:#B16668;" points="318.111,257.888 322.503,265.942 315.67,271.799 309.411,261.875 			"/>
			<path id="XMLID_5871_" style="fill:#27DEBF;" d="M301.628,239.939c4.356,0.045,9.154,1.629,10.804,5.045
				c1.65,3.416,6.894,13.999,6.894,13.999s-4.739,4.367-10.846,3.97L301.628,239.939z"/>
			<path id="XMLID_49_" style="opacity:0.3;" d="M301.628,239.939c4.356,0.045,9.154,1.629,10.804,5.045
				c1.65,3.416,6.894,13.999,6.894,13.999s-4.739,4.367-10.846,3.97L301.628,239.939z"/>
			<path id="XMLID_5870_" style="fill:#27DEBF;" d="M292.608,240.095l-3.957,0.149c-3.946,0.95-5.036,3.653-6.695,7.153
				c-1.262,2.665-1.277,5.755-0.313,8.541l4.618,13.36c0,0-2.162,5.227-4.673,10.165c11.589,6.468,26.06,3.068,29.545-1.652
				c0.147-1.001-0.053-5.514,0.228-10.649c0.3-5.475,1.052-11.658,0.191-15.042c-1.598-6.282-4.592-12.18-10.55-12.18
				L292.608,240.095z"/>
			<path id="XMLID_5869_" style="fill:#27DEBF;" d="M288.652,240.244c-5.562-0.305-9.474,1.032-12.688,10.09
				c-2.21,6.229-5.023,13.463-5.023,13.463s3.458,3.45,10.02,3.419C280.961,267.216,289.7,246.381,288.652,240.244z"/>
			<path id="XMLID_3_" style="opacity:0.3;" d="M288.652,240.244c-5.562-0.305-9.474,1.032-12.688,10.09
				c-2.21,6.229-5.023,13.463-5.023,13.463s3.458,3.45,10.02,3.419C280.961,267.216,289.7,246.381,288.652,240.244z"/>
		</g>
		<g id="XMLID_5858_">
			<path id="XMLID_5865_" style="fill:#B16668;" d="M305.751,213.583c1.567,0.926,3.503,4.866,3.312,13.126
				c-0.162,7-2.431,8.73-3.57,9.228c-1.139,0.498-3.337,0.195-5.473-0.161v4.201c0,0,2.952,3.429,2.766,5.356
				c-0.186,1.926-4.263,2.382-7.026,0.5c-2.763-1.882-4.534-4.747-4.534-4.747v-10.156c0,0-1.442,1.926-3.801,0.359
				c-2.359-1.566-2.449-5.444-1.077-6.836c1.371-1.392,4.327-0.951,4.878,0.972c0,0,3.407,0.124,7.944-2.368
				C303.706,220.566,305.449,216.298,305.751,213.583z"/>
			<path id="XMLID_5864_" style="fill:#263238;" d="M301.544,225.054c0.025,0.505-0.348,0.932-0.833,0.955
				c-0.486,0.023-0.9-0.367-0.925-0.872c-0.025-0.504,0.348-0.932,0.833-0.955C301.104,224.159,301.518,224.549,301.544,225.054z"/>
			<path id="XMLID_5863_" style="fill:#9A4A4D;" d="M301.482,230.885l2.045,0.652c-0.17,0.585-0.765,0.913-1.33,0.734
				C301.632,232.09,301.312,231.47,301.482,230.885z"/>
			<path id="XMLID_5862_" style="fill:#263238;" d="M308.465,222.247l-1.781-1.235c0.325-0.509,0.987-0.645,1.479-0.304
				C308.655,221.05,308.79,221.739,308.465,222.247z"/>
			<path id="XMLID_5861_" style="fill:#263238;" d="M308.205,224.896c0.025,0.504-0.348,0.932-0.833,0.955
				c-0.486,0.023-0.9-0.367-0.925-0.872c-0.025-0.504,0.348-0.932,0.833-0.955C307.766,224.001,308.18,224.391,308.205,224.896z"/>
			<polygon id="XMLID_5860_" style="fill:#9A4A4D;" points="303.901,223.81 304.041,229.109 306.83,228.245 			"/>
			<path id="XMLID_5859_" style="fill:#9A4A4D;" d="M300.019,235.776c-2.251-0.295-6.883-1.626-7.605-3.457
				c0,0,0.241,1.151,1.624,2.337c1.383,1.186,5.981,2.522,5.981,2.522V235.776z"/>
		</g>
		<g id="XMLID_5849_">
			<polygon id="XMLID_5857_" style="fill:#F5F5F5;" points="333.926,253.781 303.83,264.125 294.426,303.112 323.263,292.442 			"/>
			<polygon id="XMLID_1185_" style="fill:#E0E0E0;" points="299.034,292.291 323.866,283.634 322.023,290.81 297.231,299.856 			"/>
			<polygon id="XMLID_1091_" style="fill:#E6E6E6;" points="314.67,281.42 313.984,285.827 324.217,282.013 325.533,277.46 			"/>
			<polygon id="XMLID_1090_" style="fill:#E0E0E0;" points="303.523,273.622 314.725,269.764 311.723,286.613 299.197,290.81 			"/>
			<polygon id="XMLID_5652_" style="fill:#E6E6E6;" points="329.03,264.56 326.01,275.511 315.016,279.578 316.913,269.157 			"/>
			<polygon id="XMLID_5654_" style="fill:#E0E0E0;" points="331.195,256.712 305.256,265.565 303.807,271.54 329.683,262.223 			"/>
			<path id="XMLID_5856_" style="opacity:0.15;" d="M321.972,278.079c0.237,0.648,1.638,2.444,4.613,2.302l0.361-1.31
				L321.972,278.079z"/>
			<path id="XMLID_5855_" style="opacity:0.15;" d="M312.533,279.374c-0.112,0.845-1.851,2.411-4.788,3.391
				c-3.343,1.114-8.548,0.568-8.548,0.568l0.394-1.658L312.533,279.374z"/>
		</g>
		<path id="XMLID_5848_" style="fill:#B16668;" d="M270.145,276.657l9.145-6.171c0,0,13.736,5.067,15.77,5.227
			c2.033,0.16,4.291-1.276,5.067-3.272c0.775-1.996,2.141-1.747,2.141-1.747s-0.602,2.53-0.794,3.338
			c-0.192,0.808,4.681,1.471,7.383,0.556c2.703-0.915,6.615,0.414,4.192,4.094c-2.424,3.681-7.136,4.105-10.411,4.107
			c-0.905,0.001-2.513-0.068-4.094-0.274c-1.059-0.138-2.113-0.244-3.178-0.32C288.665,281.716,273.19,277.613,270.145,276.657z"/>
		<path id="XMLID_5819_" style="fill:#B16668;" d="M330.45,266.367c0,0-0.897,3.263-1.115,4.042
			c-0.219,0.779-3.19,2.195-5.069,2.711c-1.879,0.516-3.933,1.128-3.044,3.755c0.82,2.422,3.911,2.975,5.485,2.907
			c1.574-0.068,3.729-1.573,4.578-3.998c1.083-3.093,0.499-6.397,0.929-8.204C332.643,265.772,331.391,265.289,330.45,266.367z"/>
	</g>
</g>
<g id="Paper_Planes">
	<g id="XMLID_1_">
		<g id="XMLID_43_">
			<polygon id="XMLID_47_" style="fill:#27DEBF;" points="425.122,240.843 467.421,213.754 486.053,219.736 			"/>
			<polygon id="XMLID_46_" style="fill:#27DEBF;" points="425.122,240.843 461.681,210.355 453.557,200.974 			"/>
			<polygon id="XMLID_45_" style="fill:#27DEBF;" points="461.681,210.355 461.681,217.43 425.122,240.843 			"/>
			<polygon id="XMLID_44_" style="opacity:0.3;" points="461.681,210.355 461.681,217.43 425.122,240.843 			"/>
		</g>
		<g id="XMLID_38_">
			<polygon id="XMLID_42_" style="fill:#27DEBF;" points="369.504,239.97 400.702,219.989 414.446,224.402 			"/>
			<polygon id="XMLID_41_" style="fill:#27DEBF;" points="369.504,239.97 396.469,217.482 390.477,210.563 			"/>
			<polygon id="XMLID_40_" style="fill:#27DEBF;" points="396.469,217.482 396.469,222.701 369.504,239.97 			"/>
			<polygon id="XMLID_39_" style="opacity:0.3;" points="396.469,217.482 396.469,222.701 369.504,239.97 			"/>
		</g>
		<g id="XMLID_25_">
			<path id="XMLID_26_" style="fill:#E6E6E6;" d="M467.002,208.39c-0.201,0-0.402-0.081-0.551-0.24
				c-0.281-0.305-0.263-0.779,0.041-1.061c1.442-1.334,2.755-2.801,3.902-4.358c0.244-0.334,0.714-0.404,1.048-0.159
				c0.334,0.245,0.405,0.715,0.159,1.048c-1.203,1.635-2.579,3.172-4.09,4.571C467.367,208.324,467.185,208.39,467.002,208.39z
				 M473.623,199.677c-0.114,0-0.231-0.026-0.341-0.082c-0.368-0.189-0.515-0.641-0.326-1.01c0.885-1.73,1.604-3.56,2.14-5.438
				c0.115-0.396,0.524-0.629,0.928-0.516c0.397,0.114,0.629,0.529,0.516,0.928c-0.563,1.971-1.318,3.892-2.247,5.709
				C474.159,199.528,473.897,199.677,473.623,199.677z M476.802,189.206c-0.03,0-0.06-0.002-0.091-0.005
				c-0.411-0.05-0.704-0.423-0.655-0.835c0.15-1.246,0.226-2.518,0.225-3.78c0-0.686-0.023-1.382-0.066-2.07
				c-0.026-0.414,0.287-0.77,0.7-0.796c0.411-0.042,0.77,0.287,0.796,0.7c0.046,0.721,0.069,1.449,0.069,2.165
				c0.001,1.321-0.078,2.654-0.234,3.961C477.5,188.927,477.176,189.206,476.802,189.206z M476.283,178.271
				c-0.347,0-0.658-0.242-0.732-0.595c-0.4-1.889-0.967-3.78-1.686-5.623c-0.15-0.386,0.041-0.821,0.427-0.972
				c0.386-0.146,0.821,0.041,0.972,0.427c0.747,1.919,1.338,3.89,1.754,5.858c0.086,0.405-0.173,0.804-0.578,0.889
				C476.386,178.266,476.334,178.271,476.283,178.271z M472.453,168.003c-0.266,0-0.523-0.141-0.659-0.391
				c-0.925-1.694-1.996-3.36-3.184-4.952c-0.248-0.332-0.18-0.802,0.151-1.05c0.335-0.248,0.804-0.178,1.05,0.152
				c1.232,1.648,2.342,3.375,3.3,5.131c0.198,0.364,0.065,0.819-0.299,1.018C472.698,167.974,472.574,168.003,472.453,168.003z
				 M466.003,159.13c-0.2,0-0.4-0.08-0.548-0.238c-1.318-1.412-2.761-2.779-4.286-4.063c-0.316-0.267-0.357-0.74-0.091-1.057
				c0.267-0.318,0.74-0.357,1.058-0.091c1.57,1.323,3.057,2.731,4.415,4.188c0.283,0.303,0.267,0.777-0.036,1.06
				C466.37,159.063,466.187,159.13,466.003,159.13z M457.684,151.968c-0.147,0-0.297-0.043-0.428-0.134
				c-1.477-1.028-3.047-2.015-4.665-2.931l-0.368-0.213c-0.358-0.208-0.48-0.667-0.272-1.025c0.207-0.357,0.667-0.48,1.024-0.273
				l0.361,0.209c1.652,0.936,3.263,1.947,4.777,3.002c0.34,0.237,0.424,0.704,0.187,1.044
				C458.155,151.855,457.921,151.968,457.684,151.968z M448.272,146.284c-0.127,0-0.257-0.032-0.375-0.101l-5.192-3.008
				c-0.358-0.208-0.48-0.667-0.273-1.025c0.209-0.358,0.667-0.481,1.025-0.273l5.192,3.008c0.358,0.207,0.48,0.666,0.273,1.025
				C448.783,146.15,448.531,146.284,448.272,146.284z M438.753,140.77c-0.127,0-0.257-0.032-0.375-0.101l-5.191-3.007
				c-0.358-0.208-0.48-0.667-0.273-1.025c0.209-0.357,0.667-0.481,1.025-0.273l5.191,3.007c0.358,0.207,0.48,0.666,0.273,1.025
				C439.264,140.636,439.012,140.77,438.753,140.77z M429.235,135.256c-0.127,0-0.257-0.033-0.375-0.101l-5.191-3.008
				c-0.358-0.207-0.48-0.667-0.273-1.025c0.209-0.358,0.667-0.48,1.025-0.273l5.191,3.008c0.358,0.208,0.48,0.667,0.273,1.025
				C429.745,135.122,429.493,135.256,429.235,135.256z M419.717,129.742c-0.127,0-0.257-0.032-0.375-0.101l-1.814-1.05
				c-0.358-0.208-0.48-0.667-0.273-1.025c0.209-0.357,0.667-0.481,1.025-0.273l1.813,1.05c0.358,0.208,0.48,0.667,0.273,1.025
				C420.228,129.607,419.976,129.742,419.717,129.742z"/>
		</g>
		<g id="XMLID_2_">
			<path id="XMLID_4_" style="fill:#E6E6E6;" d="M402.818,217.574c-0.216,0-0.431-0.093-0.578-0.273
				c-0.264-0.319-0.219-0.792,0.101-1.056l3.733-3.08c0.317-0.263,0.792-0.22,1.056,0.101c0.264,0.319,0.219,0.792-0.101,1.056
				l-3.733,3.08C403.156,217.517,402.987,217.574,402.818,217.574z M410.409,211.311c-0.216,0-0.431-0.093-0.578-0.273
				c-0.264-0.319-0.219-0.792,0.1-1.056l4.628-3.818c0.316-0.263,0.793-0.22,1.056,0.101c0.264,0.319,0.219,0.792-0.1,1.056
				l-4.628,3.818C410.746,211.254,410.577,211.311,410.409,211.311z M418.751,204.148c-0.195,0-0.391-0.076-0.538-0.228
				c-0.288-0.297-0.281-0.771,0.016-1.061c1.438-1.398,2.798-2.854,4.043-4.328c0.268-0.315,0.738-0.354,1.058-0.089
				c0.316,0.268,0.355,0.741,0.089,1.058c-1.277,1.511-2.672,3.004-4.145,4.436C419.128,204.078,418.94,204.148,418.751,204.148z
				 M425.894,195.808c-0.148,0-0.298-0.044-0.429-0.136c-0.34-0.237-0.422-0.705-0.184-1.044c1.148-1.643,2.188-3.336,3.088-5.032
				c0.194-0.365,0.647-0.505,1.014-0.311c0.366,0.193,0.505,0.648,0.311,1.014c-0.929,1.75-2,3.496-3.184,5.188
				C426.364,195.697,426.131,195.808,425.894,195.808z M431.121,186.16c-0.091,0-0.184-0.017-0.273-0.052
				c-0.386-0.151-0.576-0.586-0.425-0.972c0.728-1.855,1.311-3.745,1.734-5.618c0.091-0.404,0.492-0.661,0.896-0.566
				c0.404,0.091,0.658,0.493,0.566,0.896c-0.44,1.947-1.046,3.91-1.801,5.835C431.703,185.979,431.421,186.16,431.121,186.16z
				 M433.658,175.497c-0.022,0-0.043-0.001-0.064-0.003c-0.412-0.034-0.719-0.398-0.684-0.811c0.081-0.96,0.122-1.927,0.122-2.871
				c0-0.998-0.045-2.003-0.135-2.988c-0.037-0.413,0.267-0.777,0.68-0.815c0.393-0.035,0.776,0.267,0.814,0.679
				c0.094,1.03,0.141,2.081,0.141,3.124c0,0.986-0.043,1.995-0.128,2.998C434.37,175.201,434.043,175.497,433.658,175.497z
				 M432.82,164.581c-0.337,0-0.644-0.229-0.728-0.571c-0.464-1.885-1.105-3.749-1.905-5.539c-0.169-0.378,0-0.822,0.378-0.991
				c0.378-0.169,0.822-0.001,0.991,0.378c0.837,1.871,1.508,3.82,1.993,5.792c0.099,0.402-0.147,0.809-0.549,0.907
				C432.94,164.574,432.879,164.581,432.82,164.581z M428.507,154.515c-0.249,0-0.492-0.124-0.635-0.349
				c-1.028-1.626-2.216-3.205-3.53-4.692c-0.274-0.31-0.245-0.784,0.064-1.059c0.309-0.274,0.785-0.246,1.059,0.065
				c1.368,1.547,2.605,3.19,3.675,4.884c0.222,0.35,0.117,0.814-0.233,1.035C428.783,154.477,428.644,154.515,428.507,154.515z
				 M421.371,146.194c-0.178,0-0.355-0.063-0.498-0.189c-1.434-1.274-3.002-2.49-4.659-3.615c-0.343-0.232-0.433-0.699-0.199-1.042
				c0.23-0.343,0.697-0.434,1.041-0.2c1.711,1.161,3.331,2.417,4.813,3.735c0.31,0.275,0.338,0.749,0.063,1.059
				C421.784,146.109,421.578,146.194,421.371,146.194z M412.386,139.869c-0.132,0-0.266-0.035-0.387-0.108
				c-2.935-1.774-4.855-2.929-5.139-3.089c-0.36-0.204-0.487-0.662-0.283-1.022c0.204-0.36,0.663-0.487,1.022-0.284
				c0.426,0.241,3.762,2.255,5.176,3.11c0.355,0.214,0.469,0.676,0.254,1.03C412.888,139.74,412.64,139.869,412.386,139.869z"/>
		</g>
	</g>
</g>
</svg>
